# This file uses centimeters as units for non-parametric coordinates.

mtllib 03_shoulderL.mtl
g default
v 0.047205 -1.821428 1.871523
v 3.077528 -0.970694 1.871523
v 0.047205 -1.821428 -1.871525
v 3.077528 -0.970694 -1.871525
v 1.465201 -0.966972 1.871523
v 1.465201 -0.966972 -1.871525
v 0.041145 0.137050 1.871523
v 2.384083 0.137050 1.871523
v 4.562050 -0.696929 1.871523
v 4.562050 -0.696929 -1.871525
v 2.384083 0.137050 -1.871525
v 0.041145 0.137050 -1.871525
v 4.600618 -0.753891 1.869014
v 4.600618 -0.753891 -1.869018
v 4.890408 -0.829659 1.126597
v 4.890408 -0.829659 -1.126601
v 0.047205 1.627613 1.079088
v 2.384083 2.152905 1.079088
v 0.047205 1.627613 -1.079090
v 2.384083 2.152905 -1.079090
v 3.810723 2.013867 -1.079090
v 3.810723 2.013867 1.079088
v 5.446224 -0.095848 -1.077014
v 5.446224 -0.095848 1.077012
v 5.400120 -0.433017 -0.649200
v 5.400120 -0.433017 0.649196
vt 0.530495 0.724550
vt 0.562838 0.740994
vt 0.583797 0.762239
vt 0.530356 0.762239
vt 0.633474 0.746190
vt 0.599614 0.740922
vt 0.562838 0.740994
vt 0.583797 0.762239
vt 0.633474 0.746190
vt 0.599614 0.740922
vt 0.530356 0.762239
vt 0.530495 0.724550
vt 0.583797 0.801033
vt 0.616337 0.798357
vt 0.583797 0.801033
vt 0.616337 0.798357
vt 0.530495 0.790924
vt 0.530495 0.790924
vt 0.653642 0.757758
vt 0.634354 0.745094
vt 0.634354 0.745094
vt 0.653642 0.757758
vt 0.677158 0.814769
vt 0.677158 0.782794
vt 0.696591 0.782794
vt 0.696591 0.814769
vt 0.645326 0.782794
vt 0.645326 0.814769
vt 0.718870 0.782824
vt 0.718870 0.814738
vt 0.726779 0.816922
vt 0.728467 0.776425
vt 0.741132 0.785558
vt 0.740160 0.808894
vt 0.722420 0.830114
vt 0.725220 0.762929
vt 0.746231 0.778080
vt 0.744618 0.816795
vt 0.509898 0.761049
vt 0.461887 0.761049
vt 0.472051 0.781798
vt 0.499733 0.781798
vt 0.509898 0.733787
vt 0.461887 0.733787
vt 0.582224 0.692973
vt 0.582224 0.731242
vt 0.608678 0.731242
vt 0.608678 0.692973
vt 0.558960 0.731242
vt 0.558960 0.692973
vt 0.633034 0.731242
vt 0.633034 0.692973
vn 0.270291 -0.962779 0.000000
vn 0.270291 -0.962779 0.000000
vn -0.002309 -0.999997 0.000000
vn -0.002309 -0.999997 0.000000
vn 0.715660 -0.665855 0.210876
vn 0.715660 -0.665854 -0.210876
vn 0.660262 -0.746214 -0.084965
vn 0.660262 -0.746214 0.084965
vn -0.999999 -0.001027 0.000000
vn -1.000000 -0.001027 0.000000
vn -0.999992 0.004065 0.000000
vn -0.999992 0.004065 0.000000
vn 0.516120 -0.856516 0.000000
vn 0.516120 -0.856516 0.000000
vn 0.000000 0.000000 1.000000
vn -0.000000 0.000000 1.000000
vn 0.020509 0.272322 0.961988
vn -0.029570 0.263440 0.964222
vn 0.272869 0.318109 0.907937
vn -0.000000 0.000000 1.000000
vn 0.181355 -0.983418 0.000000
vn 0.181355 -0.983418 0.000000
vn 0.141964 -0.989872 0.000000
vn 0.141965 -0.989872 0.000000
vn 0.000000 0.000000 -1.000000
vn 0.020509 0.272322 -0.961987
vn 0.272869 0.318109 -0.907937
vn 0.000000 0.000000 -1.000000
vn -0.029570 0.263440 -0.964222
vn 0.000000 0.000000 -1.000000
vn -0.999995 -0.003094 0.000000
vn -0.999995 -0.003094 0.000000
vn -0.633367 -0.773851 0.000000
vn -0.633370 -0.773849 0.000000
vn -0.252957 -0.967477 0.000000
vn -0.252957 -0.967477 0.000000
vn 0.023402 0.370412 0.928573
vn 0.124502 0.334780 0.934035
vn -0.102095 0.994775 0.000000
vn -0.102095 0.994775 0.000000
vn 0.096999 0.995284 0.000000
vn 0.096999 0.995284 0.000000
vn 0.023402 0.370413 -0.928572
vn 0.124502 0.334781 -0.934035
vn -0.046189 0.411500 -0.910239
vn -0.219311 0.975655 0.000000
vn -0.219311 0.975655 0.000000
vn -0.046189 0.411500 0.910239
vn 0.473334 0.364022 -0.802149
vn 0.473334 0.364022 -0.802149
vn 0.790329 0.612682 0.000000
vn 0.790329 0.612682 0.000000
vn 0.790329 0.612682 0.000000
vn 0.790329 0.612682 0.000000
vn 0.473334 0.364021 0.802149
vn 0.473334 0.364021 0.802149
vn 0.757477 -0.549968 -0.351801
vn 0.757477 -0.549968 -0.351801
vn 0.990780 -0.135479 0.000000
vn 0.990780 -0.135479 0.000000
vn 0.990780 -0.135479 0.000000
vn 0.990780 -0.135479 0.000000
vn 0.757476 -0.549969 0.351801
vn 0.757476 -0.549969 0.351801
s 1
g shoulder
usemtl lambert17SG
f 5/45/1 6/46/2 4/47/3 2/48/4
s 2
f 15/31/5 16/32/6 25/33/7 26/34/8
s 3
f 12/39/9 7/40/10 17/41/11 19/42/12
s 1
f 3/49/13 6/46/2 5/45/1 1/50/14
s 4
f 1/1/15 5/2/16 8/3/17 7/4/18
f 9/5/19 8/3/17 5/2/16 2/6/20
s 5
f 2/48/21 4/47/22 10/51/23 9/52/24
s 6
f 6/7/25 11/8/26 10/9/27 4/10/28
f 12/11/29 11/8/26 6/7/25 3/12/30
s 3
f 3/43/31 1/44/32 7/40/10 12/39/9
s 5
f 9//24 10//23 14//33 13//34
f 13/35/34 14/36/33 16/32/35 15/31/36
s 4
f 18/13/37 8/3/17 9/5/19 22/14/38
s 7
f 20/23/39 18/24/40 22/25/41 21/26/42
s 6
f 10/9/27 11/8/26 20/15/43 21/16/44
f 19/17/45 20/15/43 11/8/26 12/11/29
s 7
f 17/27/46 18/24/40 20/23/39 19/28/47
s 4
f 7/4/18 8/3/17 18/13/37 17/18/48
s 6
f 10/9/27 21/16/44 23/19/49 14/20/50
s off
f 21/26/51 22/25/52 24/29/53 23/30/54
s 4
f 22/14/38 9/5/19 13/21/55 24/22/56
s 2
f 14/36/57 23/37/58 25/33/7 16/32/6
s off
f 23/37/59 24/38/60 26/34/61 25/33/62
s 2
f 24/38/63 13/35/64 15/31/5 26/34/8
